<svg xmlns="http://www.w3.org/2000/svg" xmlns:xlink="http://www.w3.org/1999/xlink" viewBox="0 0 430 430" width="430" height="430" preserveAspectRatio="xMidYMid meet" style="width: 100%; height: 100%; transform: translate3d(0px, 0px, 0px); content-visibility: visible;"><defs><clipPath id="__lottie_element_2"><rect width="430" height="430" x="0" y="0"/></clipPath><clipPath id="__lottie_element_4"><path d="M0,0 L430,0 L430,430 L0,430z"/></clipPath><clipPath id="__lottie_element_392"><path d="M0,0 L430,0 L430,430 L0,430z"/></clipPath><clipPath id="__lottie_element_396"><path d="M0,0 L430,0 L430,430 L0,430z"/></clipPath></defs><g clip-path="url(#__lottie_element_2)"><g clip-path="url(#__lottie_element_4)" transform="matrix(1,0,0,1,0,0)" opacity="1" style="display: none;"><g transform="matrix(1,0,0,1,215.10699462890625,215)" opacity="1" style="display: block;"><g opacity="1" transform="matrix(1,0,0,1,0,0)"><path stroke-linecap="butt" stroke-linejoin="round" fill-opacity="0" class="primary" stroke="rgb(18,19,49)" stroke-opacity="1" stroke-width="18" d=" M97.5,-112.32099914550781 C97.5,-112.32099914550781 97.5,-185 97.5,-185 C97.5,-185 23.75,-185 23.75,-185 C-14.90999984741211,-185 -46.25,-153.66000366210938 -46.25,-115 C-46.25,-115 -46.25,-39.643001556396484 -46.25,-39.643001556396484 C-46.25,-39.643001556396484 -104.10700225830078,-39.643001556396484 -104.10700225830078,-39.643001556396484 C-104.10700225830078,-39.643001556396484 -104.10700225830078,33.0359992980957 -104.10700225830078,33.0359992980957 C-104.10700225830078,33.0359992980957 -46.25,33.0359992980957 -46.25,33.0359992980957 C-46.25,33.0359992980957 -46.25,185 -46.25,185 C-46.25,185 26.429000854492188,185 26.429000854492188,185 C26.429000854492188,185 26.429000854492188,33.0359992980957 26.429000854492188,33.0359992980957 C26.429000854492188,33.0359992980957 84.28600311279297,33.0359992980957 84.28600311279297,33.0359992980957 C84.28600311279297,33.0359992980957 104.10700225830078,-39.643001556396484 104.10700225830078,-39.643001556396484 C104.10700225830078,-39.643001556396484 26.429000854492188,-39.643001556396484 26.429000854492188,-39.643001556396484 C26.429000854492188,-39.643001556396484 26.429000854492188,-92.32099914550781 26.429000854492188,-92.32099914550781 C26.429000854492188,-103.36699676513672 35.382999420166016,-112.32099914550781 46.42900085449219,-112.32099914550781 C46.42900085449219,-112.32099914550781 97.5,-112.32099914550781 97.5,-112.32099914550781z"/></g></g></g><g clip-path="url(#__lottie_element_392)" transform="matrix(1,0,0,1,0,0)" opacity="1" style="display: block;"><g clip-path="url(#__lottie_element_396)" transform="matrix(1,0,0,1,0,0)" opacity="1" style="display: block;"><g transform="matrix(1,0,0,1,215.10699462890625,215)" opacity="1" style="display: block;"><g opacity="1" transform="matrix(1,0,0,1,0,0)"><path stroke-linecap="butt" stroke-linejoin="round" fill-opacity="0" class="primary" stroke="rgb(18,19,49)" stroke-opacity="1" stroke-width="12" d=" M97.5,-112.32099914550781 C97.5,-112.32099914550781 97.5,-185 97.5,-185 C97.5,-185 23.75,-185 23.75,-185 C-14.90999984741211,-185 -46.25,-153.66000366210938 -46.25,-115 C-46.25,-115 -46.25,-39.643001556396484 -46.25,-39.643001556396484 C-46.25,-39.643001556396484 -104.10700225830078,-39.643001556396484 -104.10700225830078,-39.643001556396484 C-104.10700225830078,-39.643001556396484 -104.10700225830078,33.0359992980957 -104.10700225830078,33.0359992980957 C-104.10700225830078,33.0359992980957 -46.25,33.0359992980957 -46.25,33.0359992980957 C-46.25,33.0359992980957 -46.25,185 -46.25,185 C-46.25,185 26.429000854492188,185 26.429000854492188,185 C26.429000854492188,185 26.429000854492188,33.0359992980957 26.429000854492188,33.0359992980957 C26.429000854492188,33.0359992980957 84.28600311279297,33.0359992980957 84.28600311279297,33.0359992980957 C84.28600311279297,33.0359992980957 104.10700225830078,-39.643001556396484 104.10700225830078,-39.643001556396484 C104.10700225830078,-39.643001556396484 26.429000854492188,-39.643001556396484 26.429000854492188,-39.643001556396484 C26.429000854492188,-39.643001556396484 26.429000854492188,-92.32099914550781 26.429000854492188,-92.32099914550781 C26.429000854492188,-103.36699676513672 35.382999420166016,-112.32099914550781 46.42900085449219,-112.32099914550781 C46.42900085449219,-112.32099914550781 97.5,-112.32099914550781 97.5,-112.32099914550781z"/></g></g></g></g></g></svg>